HIERARCHY
ROOT Hips
{
 OFFSET 0.000000 0.000000 0.000000
 CHANNELS 6 Xposition Yposition Zposition Yrotation Xrotation Zrotation
 JOINT Chest
 {
  OFFSET 0.000000 9.585900 0.002600
  CHANNELS 3 Yrotation Xrotation Zrotation
  JOINT Chest2
  {
   OFFSET 0.000000 9.601200 -0.005300
   CHANNELS 3 Yrotation Xrotation Zrotation
   JOINT Chest3
   {
    OFFSET 0.000000 9.561800 0.000000
    CHANNELS 3 Yrotation Xrotation Zrotation
    JOINT Chest4
    {
     OFFSET 0.000000 9.552100 0.000000
     CHANNELS 3 Yrotation Xrotation Zrotation
     JOINT Neck
     {
      OFFSET 0.000000 14.453000 0.000000
      CHANNELS 3 Yrotation Xrotation Zrotation
      JOINT Head
      {
       OFFSET 0.000000 8.936500 -0.011300
       CHANNELS 3 Yrotation Xrotation Zrotation
       End Site
       {
        OFFSET 0.000000 17.073600 -0.006000
       }
      }
     }
     JOINT RightCollar
     {
      OFFSET -2.921100 9.558500 0.000000
      CHANNELS 3 Yrotation Xrotation Zrotation
      JOINT RightShoulder
      {
       OFFSET -13.519700 0.000000 0.000000
       CHANNELS 3 Yrotation Xrotation Zrotation
       JOINT RightElbow
       {
        OFFSET 0.000000 -29.696600 0.000000
        CHANNELS 3 Yrotation Xrotation Zrotation
        JOINT RightWrist
        {
         OFFSET 0.000000 -24.004700 0.000000
         CHANNELS 3 Yrotation Xrotation Zrotation
         End Site
         {
          OFFSET 0.000000 -17.728500 0.000000
         }
        }
       }
      }
     }
     JOINT LeftCollar
     {
      OFFSET 2.921100 9.558500 0.000000
      CHANNELS 3 Yrotation Xrotation Zrotation
      JOINT LeftShoulder
      {
       OFFSET 13.519700 0.000000 0.000000
       CHANNELS 3 Yrotation Xrotation Zrotation
       JOINT LeftElbow
       {
        OFFSET 0.000000 -29.696600 0.000000
        CHANNELS 3 Yrotation Xrotation Zrotation
        JOINT LeftWrist
        {
         OFFSET 0.000000 -24.004700 0.000000
         CHANNELS 3 Yrotation Xrotation Zrotation
         End Site
         {
          OFFSET 0.000000 -17.728500 0.000000
         }
        }
       }
      }
     }
    }
   }
  }
 }
 JOINT RightHip
 {
  OFFSET -7.771700 -0.012900 -0.001300
  CHANNELS 3 Yrotation Xrotation Zrotation
  JOINT RightKnee
  {
   OFFSET 0.000000 -40.869800 0.001200
   CHANNELS 3 Yrotation Xrotation Zrotation
   JOINT RightAnkle
   {
    OFFSET 0.000000 -39.717900 0.002100
    CHANNELS 3 Yrotation Xrotation Zrotation
    JOINT RightToe
    {
     OFFSET 0.000000 -4.965400 11.033500
     CHANNELS 3 Yrotation Xrotation Zrotation
     End Site
     {
      OFFSET 0.000000 -1.423100 5.872300
     }
    }
   }
  }
 }
 JOINT LeftHip
 {
  OFFSET 7.771700 -0.012900 -0.001300
  CHANNELS 3 Yrotation Xrotation Zrotation
  JOINT LeftKnee
  {
   OFFSET 0.000000 -40.869800 0.001200
   CHANNELS 3 Yrotation Xrotation Zrotation
   JOINT LeftAnkle
   {
    OFFSET 0.000000 -39.717900 0.002100
    CHANNELS 3 Yrotation Xrotation Zrotation
    JOINT LeftToe
    {
     OFFSET 0.000000 -4.965400 11.033500
     CHANNELS 3 Yrotation Xrotation Zrotation
     End Site
     {
      OFFSET 0.000000 -1.423100 5.872300
     }
    }
   }
  }
 }
}
MOTION
Frames: 11
Frame Time: 0.008333
-44.996211 57.478997 19.042800 161.395818 -8.071533 0.269069 2.832636 7.004516 1.126742 0.110500 0.300354 0.019782 0.215464 0.581703 0.015771 2.498617 6.677745 0.415037 0.465965 18.532138 -1.282661 1.252755 -1.326362 -2.505857 3.405951 8.029207 1.779193 -6.271582 -10.733399 -8.902828 -53.617449 -80.487912 73.517320 -3.963437 10.702292 -28.602682 -4.973399 8.052403 -2.207629 15.109928 -7.359991 0.658933 66.572840 -73.325298 -88.619401 -0.120192 7.400142 13.077693 -16.951797 -63.921283 8.036237 -29.937924 73.738101 -29.649098 -1.302336 -7.631339 -2.676043 -0.244767 0.709331 -0.115868 2.671514 -66.794890 13.690135 40.926164 64.325900 33.713293 -18.113233 -9.079155 4.097564 -0.219388 -0.968226 -0.106970
-44.991996 57.485064 19.036357 161.408394 -8.072842 0.269872 2.809442 6.981485 1.132148 0.117665 0.318219 0.012969 0.206193 0.557108 0.023317 2.500950 6.681006 0.414015 0.475120 18.534833 -1.285666 1.277092 -1.282232 -2.524410 3.395331 8.025925 1.743196 -6.374621 -10.689807 -8.831121 -53.336138 -80.459761 73.349097 -3.978990 10.695685 -28.623812 -4.939348 8.127673 -2.133617 15.079713 -7.363914 0.571246 66.439612 -73.295863 -88.471716 -0.142031 7.359739 13.065567 -16.962542 -63.917560 8.032457 -29.969491 73.747215 -29.672826 -1.309232 -7.633150 -2.688352 -0.233084 0.694957 -0.109275 2.666481 -66.790078 13.683110 40.921188 64.326587 33.710155 -18.111005 -9.064642 4.098874 -0.248470 -0.982701 -0.112266
-44.990383 57.490488 19.030997 161.415743 -8.069346 0.285425 2.786182 6.952748 1.124147 0.116853 0.316198 0.013343 0.204330 0.531949 0.030853 2.491944 6.684447 0.413473 0.503679 18.569285 -1.305323 1.342966 -1.229939 -2.563729 3.413533 8.028863 1.681205 -6.427972 -10.613391 -8.775036 -53.122732 -80.395036 73.185053 -4.005414 10.686911 -28.664654 -4.912856 8.193241 -2.089361 15.059696 -7.326029 0.511419 66.313757 -73.258401 -88.322738 -0.134877 7.351909 13.039885 -16.942866 -63.922333 8.001323 -29.995882 73.750897 -29.695536 -1.312210 -7.637019 -2.695889 -0.218408 0.689270 -0.102875 2.693336 -66.779930 13.643817 40.901635 64.317851 33.691213 -18.124242 -9.061751 4.091805 -0.218651 -0.979805 -0.107443
-44.985773 57.494993 19.027520 161.428973 -8.066870 0.280037 2.774473 6.918930 1.138551 0.112988 0.325763 0.010912 0.207323 0.543399 0.025495 2.486658 6.659186 0.418754 0.524072 18.598141 -1.323397 1.382338 -1.198893 -2.580451 3.434316 7.998228 1.614479 -6.471041 -10.498192 -8.715163 -52.945920 -80.311030 73.030614 -4.029161 10.677181 -28.719962 -4.911274 8.228561 -2.016915 15.041581 -7.248306 0.442054 66.214254 -73.222408 -88.192853 -0.120711 7.338946 13.009440 -16.950281 -63.908478 8.001837 -30.006813 73.740548 -29.698910 -1.314073 -7.662163 -2.700461 -0.218393 0.708365 -0.098818 2.634791 -66.760424 13.673021 40.897048 64.288681 33.681251 -18.095675 -9.076309 4.071928 -0.230502 -0.957857 -0.105120
-44.983327 57.498497 19.023007 161.443250 -8.071038 0.288074 2.762731 6.910104 1.131608 0.115100 0.313204 0.011593 0.204351 0.560827 0.024150 2.488291 6.646787 0.412007 0.531529 18.617837 -1.323879 1.449505 -1.163982 -2.613155 3.467494 7.934561 1.551855 -6.476470 -10.341775 -8.658381 -52.827318 -80.209279 72.884352 -4.067225 10.680122 -28.794712 -4.928197 8.235695 -1.915307 15.023513 -7.132530 0.365880 66.167339 -73.191558 -88.105927 -0.116649 7.301208 12.981023 -16.922381 -63.901930 7.962826 -30.035682 73.739090 -29.719962 -1.318613 -7.674159 -2.701709 -0.218559 0.713263 -0.095881 2.634817 -66.750643 13.649932 40.905639 64.280499 33.687638 -18.075887 -9.063616 4.070477 -0.244745 -0.968783 -0.108671
-44.979916 57.500745 19.018985 161.451103 -8.077558 0.288698 2.755037 6.913925 1.130370 0.110497 0.311110 0.007539 0.208879 0.553486 0.027159 2.481203 6.643613 0.401907 0.551660 18.633496 -1.320760 1.541497 -1.115088 -2.655561 3.530232 7.848032 1.487260 -6.417563 -10.148665 -8.607592 -52.772257 -80.095576 72.731810 -4.118071 10.697827 -28.886598 -4.948323 8.229893 -1.799733 14.998455 -6.989418 0.285321 66.195686 -73.167152 -88.077066 -0.124336 7.243765 12.958843 -16.890997 -63.895036 7.932328 -30.072454 73.741768 -29.745326 -1.329714 -7.679747 -2.698536 -0.213075 0.710522 -0.095746 2.620035 -66.740089 13.647753 40.907633 64.274475 33.698563 -18.071269 -9.062144 4.060250 -0.225836 -0.964667 -0.104957
-44.975653 57.502346 19.010893 161.429826 -8.110832 0.293379 2.772069 6.943006 1.126465 0.105633 0.316880 0.003085 0.201851 0.549960 0.019922 2.485994 6.640018 0.399300 0.614377 18.672542 -1.349776 1.624524 -1.083379 -2.658631 3.613655 7.738401 1.421906 -6.278277 -9.931567 -8.563141 -52.788404 -79.977591 72.571721 -4.180622 10.731873 -28.994620 -4.980640 8.214128 -1.674137 14.960964 -6.832574 0.202680 66.464090 -73.172803 -88.262094 -0.134034 7.207613 12.949921 -16.807623 -63.865156 7.875173 -30.097099 73.749868 -29.756758 -1.331721 -7.683045 -2.698728 -0.217815 0.706047 -0.092590 2.615100 -66.700988 13.649706 40.891101 64.284918 33.714644 -18.045251 -9.086997 4.030236 -0.215937 -0.955399 -0.100675
-44.975055 57.502346 19.005201 161.418502 -8.124503 0.309194 2.772215 6.959067 1.104562 0.109860 0.317536 0.005339 0.196444 0.552788 0.012525 2.476979 6.637190 0.384861 0.682508 18.707077 -1.363112 1.737539 -1.044788 -2.678469 3.718994 7.616602 1.358215 -6.060199 -9.708192 -8.523981 -52.883222 -79.865144 72.415990 -4.254301 10.783410 -29.118057 -5.022560 8.198695 -1.541413 14.904143 -6.678714 0.124304 66.616418 -73.154585 -88.310292 -0.126883 7.140654 12.933453 -16.740213 -63.857887 7.818438 -30.098960 73.758794 -29.755017 -1.334420 -7.691278 -2.693740 -0.222800 0.709938 -0.094540 2.600390 -66.680655 13.634135 40.905651 64.283668 33.749428 -18.006967 -9.097682 4.010625 -0.221360 -0.953919 -0.106786
-44.973380 57.501216 19.001123 161.415637 -8.132021 0.310654 2.765004 6.974058 1.091829 0.114609 0.313919 0.010380 0.193597 0.554126 0.003830 2.460970 6.641813 0.371728 0.759354 18.729439 -1.371888 1.871668 -0.999765 -2.709297 3.836010 7.494136 1.289745 -5.772146 -9.498641 -8.488798 -53.043988 -79.772472 72.269749 -4.337327 10.851783 -29.266554 -5.075006 8.187211 -1.412826 14.825073 -6.539439 0.056869 66.897558 -73.141364 -88.467277 -0.119240 7.073741 12.925055 -16.710832 -63.852610 7.794154 -30.099259 73.767460 -29.751945 -1.331346 -7.696272 -2.686513 -0.234053 0.714162 -0.100554 2.581840 -66.672025 13.639502 40.898425 64.286397 33.760108 -18.010615 -9.098473 3.995104 -0.201311 -0.951496 -0.102168
-44.971976 57.499180 18.998036 161.406183 -8.134751 0.308707 2.766389 6.983695 1.066218 0.116348 0.311396 0.025321 0.197490 0.554371 -0.000822 2.437211 6.657877 0.320628 0.868107 18.741205 -1.343567 2.017936 -0.958851 -2.738396 3.956605 7.372962 1.260025 -5.420646 -9.321844 -8.460534 -53.245707 -79.710033 72.129168 -4.421773 10.931429 -29.445267 -5.124138 8.179279 -1.248654 14.724190 -6.419586 0.001279 67.365266 -73.141467 -88.768959 -0.077891 6.993072 12.856926 -16.619260 -63.858612 7.730715 -30.170000 73.770036 -29.789007 -1.342258 -7.690310 -2.688699 -0.228745 0.707569 -0.095308 2.522060 -66.668714 13.676633 40.911958 64.284005 33.795276 -18.009246 -9.088791 3.972386 -0.187691 -0.957175 -0.104686
-44.969122 57.496753 18.993875 161.405154 -8.148711 0.295559 2.769083 6.998353 1.071675 0.111876 0.312901 0.018889 0.205449 0.558187 -0.008088 2.437056 6.662974 0.310221 0.952922 18.765536 -1.356228 2.174010 -0.925888 -2.763012 4.033722 7.283822 1.199396 -5.022735 -9.194349 -8.445020 -53.453711 -79.677641 71.979134 -4.495657 11.009127 -29.638680 -5.163485 8.175893 -1.168143 14.553709 -6.325705 0.007178 67.833547 -73.135586 -89.052664 -0.092639 6.900084 12.775579 -16.606955 -63.844629 7.731948 -30.185522 73.779792 -29.803855 -1.342005 -7.693872 -2.680624 -0.243060 0.707040 -0.097420 2.420004 -66.654916 13.741838 40.925752 64.279271 33.843223 -18.004537 -9.092423 3.917429 -0.165498 -0.954068 -0.089991
